<svg id="圖層_1" data-name="圖層 1" xmlns="http://www.w3.org/2000/svg" viewBox="0 0 200 200"><defs><style>.cls-1{fill:none;stroke-width:8px;}.cls-1,.cls-2{stroke:#000;}.cls-2,.cls-4{fill:#fff;}.cls-2{stroke-width:4px;}.cls-3{fill:#ffc700;}</style></defs><title>工作區域 1</title><path class="cls-1" d="M98.8,102a3.25,3.25,0,0,1-3.1-2.2,2.81,2.81,0,0,0-.9-1.3,6.09,6.09,0,0,0-1.9-.2c-2,0-4.2,1.5-6.8,4.6q-5.4,6.45-5.4,12a6.36,6.36,0,0,0,1.7,4.4,5.39,5.39,0,0,0,4.1,1.8,10.54,10.54,0,0,0,4.7-1.2c.6-.3,1.8-1.1,3.6-2.3a5.67,5.67,0,0,1,2.8-1.2,3.26,3.26,0,0,1,2.4,1,3.06,3.06,0,0,1,0,4.33,2.61,2.61,0,0,1-.31.27c-4.3,3.6-8.7,5.4-13.1,5.4a11.92,11.92,0,0,1-8.9-3.8,12.51,12.51,0,0,1-3.5-8.7c0-5.2,2.3-10.6,6.9-16C85,94.3,89,92,93,92a11,11,0,0,1,1.9.1,5.83,5.83,0,0,1,1.5.2,3.33,3.33,0,0,1,2.5-1q2.4,0,3,2.7a20.89,20.89,0,0,1,.4,4.6,3.14,3.14,0,0,1-.7,2.1A3.54,3.54,0,0,1,98.8,102Z"/><path class="cls-1" d="M128.5,102a3.25,3.25,0,0,1-3.1-2.2,2.81,2.81,0,0,0-.9-1.3,6.09,6.09,0,0,0-1.9-.2c-2,0-4.2,1.5-6.8,4.6q-5.4,6.45-5.4,12a6.36,6.36,0,0,0,1.7,4.4,5.39,5.39,0,0,0,4.1,1.8,10.54,10.54,0,0,0,4.7-1.2c.6-.3,1.8-1.1,3.6-2.3a5.67,5.67,0,0,1,2.8-1.2,3.26,3.26,0,0,1,2.4,1,3.06,3.06,0,0,1,0,4.33,2.61,2.61,0,0,1-.31.27c-4.3,3.6-8.7,5.4-13.1,5.4a11.92,11.92,0,0,1-8.9-3.8,12.51,12.51,0,0,1-3.5-8.7c0-5.2,2.3-10.6,6.9-16,3.9-4.6,7.9-6.9,11.9-6.9a11,11,0,0,1,1.9.1,5.83,5.83,0,0,1,1.5.2,3.33,3.33,0,0,1,2.5-1q2.4,0,3,2.7a20.89,20.89,0,0,1,.4,4.6,3.14,3.14,0,0,1-.7,2.1A3.38,3.38,0,0,1,128.5,102Z"/><path class="cls-1" d="M159.4,122.9a16.89,16.89,0,0,1-4.1,3.9,11.82,11.82,0,0,1-6.1,1.9c-4,0-6.9-.8-8.9-2.3-4.1-3.2-6.1-8.9-6.1-16.9,0-.8,0-1.9.1-3.4s.1-2.7.1-3.4V97.3a8.42,8.42,0,0,1,.7-3.5c.6-1.5,1.5-2.2,2.6-2.2a3.84,3.84,0,0,1,2.3.8,3,3,0,0,1,1.1,2.3v8.2c0,.8,0,1.9-.1,3.4s-.1,2.6-.1,3.4a29.4,29.4,0,0,0,.8,6.8c.7,2.5,1.6,4.2,2.9,5.2.7.5,2.2.8,4.7.8,4.1.1,6.9-3.5,8.3-10.5.8-3.7,1.1-8.8,1.1-15.5a4.66,4.66,0,0,1,.8-2.5,3.3,3.3,0,0,1,3-1.6,2.62,2.62,0,0,1,2.4,1.2,3.32,3.32,0,0,1,.6,1.9,88.93,88.93,0,0,1-.9,14.4A30.43,30.43,0,0,1,159.4,122.9Z"/><path class="cls-2" d="M46.5,85.9h-24a4,4,0,0,1-4-4h0a4,4,0,0,1,4-4h24a4,4,0,0,1,4,4h0A4,4,0,0,1,46.5,85.9Z"/><path class="cls-2" d="M42.9,87.3v-12a4,4,0,0,1,4-4h0a4,4,0,0,1,4,4v12a4,4,0,0,1-4,4h0A4,4,0,0,1,42.9,87.3Z"/><path class="cls-2" d="M166.6,85.9h-24a4,4,0,0,1-4-4h0a4,4,0,0,1,4-4h24a4,4,0,0,1,4,4h0A4,4,0,0,1,166.6,85.9Z"/><path class="cls-2" d="M162.9,87.3v-12a4,4,0,0,1,4-4h0a4,4,0,0,1,4,4v12a4,4,0,0,1-4,4h0A4,4,0,0,1,162.9,87.3Z"/><path class="cls-3" d="M159.4,122.9a16.89,16.89,0,0,1-4.1,3.9,11.82,11.82,0,0,1-6.1,1.9c-4,0-6.9-.8-8.9-2.3-4.1-3.2-6.1-8.9-6.1-16.9,0-.8,0-1.9.1-3.4s.1-2.7.1-3.4V97.3a8.42,8.42,0,0,1,.7-3.5c.6-1.5,1.5-2.2,2.6-2.2a3.84,3.84,0,0,1,2.3.8,3,3,0,0,1,1.1,2.3v8.2c0,.8,0,1.9-.1,3.4s-.1,2.6-.1,3.4a29.4,29.4,0,0,0,.8,6.8c.7,2.5,1.6,4.2,2.9,5.2.7.5,2.2.8,4.7.8,4.1.1,6.9-3.5,8.3-10.5.8-3.7,1.1-8.8,1.1-15.5a4.66,4.66,0,0,1,.8-2.5,3.3,3.3,0,0,1,3-1.6,2.62,2.62,0,0,1,2.4,1.2,3.32,3.32,0,0,1,.6,1.9,88.93,88.93,0,0,1-.9,14.4A30.43,30.43,0,0,1,159.4,122.9Z"/><circle class="cls-2" cx="162.6" cy="87.9" r="10"/><path class="cls-3" d="M98.8,102a3.25,3.25,0,0,1-3.1-2.2,2.81,2.81,0,0,0-.9-1.3,6.09,6.09,0,0,0-1.9-.2c-2,0-4.2,1.5-6.8,4.6q-5.4,6.45-5.4,12a6.36,6.36,0,0,0,1.7,4.4,5.39,5.39,0,0,0,4.1,1.8,10.54,10.54,0,0,0,4.7-1.2c.6-.3,1.8-1.1,3.6-2.3a5.67,5.67,0,0,1,2.8-1.2,3.26,3.26,0,0,1,2.4,1,3.06,3.06,0,0,1,0,4.33,2.61,2.61,0,0,1-.31.27c-4.3,3.6-8.7,5.4-13.1,5.4a11.92,11.92,0,0,1-8.9-3.8,12.51,12.51,0,0,1-3.5-8.7c0-5.2,2.3-10.6,6.9-16C85,94.3,89,92,93,92a11,11,0,0,1,1.9.1,5.83,5.83,0,0,1,1.5.2,3.33,3.33,0,0,1,2.5-1q2.4,0,3,2.7a20.89,20.89,0,0,1,.4,4.6,3.14,3.14,0,0,1-.7,2.1A3.54,3.54,0,0,1,98.8,102Z"/><path class="cls-3" d="M128.5,102a3.25,3.25,0,0,1-3.1-2.2,2.81,2.81,0,0,0-.9-1.3,6.09,6.09,0,0,0-1.9-.2c-2,0-4.2,1.5-6.8,4.6q-5.4,6.45-5.4,12a6.36,6.36,0,0,0,1.7,4.4,5.39,5.39,0,0,0,4.1,1.8,10.54,10.54,0,0,0,4.7-1.2c.6-.3,1.8-1.1,3.6-2.3a5.67,5.67,0,0,1,2.8-1.2,3.26,3.26,0,0,1,2.4,1,3.06,3.06,0,0,1,0,4.33,2.61,2.61,0,0,1-.31.27c-4.3,3.6-8.7,5.4-13.1,5.4a11.92,11.92,0,0,1-8.9-3.8,12.51,12.51,0,0,1-3.5-8.7c0-5.2,2.3-10.6,6.9-16,3.9-4.6,7.9-6.9,11.9-6.9a11,11,0,0,1,1.9.1,5.83,5.83,0,0,1,1.5.2,3.33,3.33,0,0,1,2.5-1q2.4,0,3,2.7a20.89,20.89,0,0,1,.4,4.6,3.14,3.14,0,0,1-.7,2.1A3.38,3.38,0,0,1,128.5,102Z"/><path class="cls-1" d="M64.6,122.9a16.89,16.89,0,0,1-4.1,3.9,11.82,11.82,0,0,1-6.1,1.9c-4,0-6.9-.8-8.9-2.3-4.1-3.2-6.1-8.9-6.1-16.9,0-.8,0-1.9.1-3.4s.1-2.7.1-3.4V97.3a8.42,8.42,0,0,1,.7-3.5c.6-1.5,1.5-2.2,2.6-2.2a3.84,3.84,0,0,1,2.3.8,3,3,0,0,1,1.1,2.3v8.2c0,.8,0,1.9-.1,3.4s-.1,2.6-.1,3.4a29.4,29.4,0,0,0,.8,6.8c.7,2.5,1.6,4.2,2.9,5.2.7.5,2.2.8,4.7.8,4.1.1,6.9-3.5,8.3-10.5.8-3.7,1.1-8.8,1.1-15.5a4.66,4.66,0,0,1,.8-2.5,3.3,3.3,0,0,1,3-1.6,2.62,2.62,0,0,1,2.4,1.2,3.32,3.32,0,0,1,.6,1.9,88.93,88.93,0,0,1-.9,14.4A30.43,30.43,0,0,1,64.6,122.9Z"/><path class="cls-3" d="M64.6,122.9a16.89,16.89,0,0,1-4.1,3.9,11.82,11.82,0,0,1-6.1,1.9c-4,0-6.9-.8-8.9-2.3-4.1-3.2-6.1-8.9-6.1-16.9,0-.8,0-1.9.1-3.4s.1-2.7.1-3.4V97.3a8.42,8.42,0,0,1,.7-3.5c.6-1.5,1.5-2.2,2.6-2.2a3.84,3.84,0,0,1,2.3.8,3,3,0,0,1,1.1,2.3v8.2c0,.8,0,1.9-.1,3.4s-.1,2.6-.1,3.4a29.4,29.4,0,0,0,.8,6.8c.7,2.5,1.6,4.2,2.9,5.2.7.5,2.2.8,4.7.8,4.1.1,6.9-3.5,8.3-10.5.8-3.7,1.1-8.8,1.1-15.5a4.66,4.66,0,0,1,.8-2.5,3.3,3.3,0,0,1,3-1.6,2.62,2.62,0,0,1,2.4,1.2,3.32,3.32,0,0,1,.6,1.9,88.93,88.93,0,0,1-.9,14.4A30.43,30.43,0,0,1,64.6,122.9Z"/><path class="cls-2" d="M100.1,109c0,6.9-4.8,12-10,12s-10-5.1-10-12,4.8-12,10-12S100.1,102.1,100.1,109Z"/><circle cx="85.1" cy="109.1" r="5"/><circle class="cls-4" cx="87.6" cy="106.5" r="1"/><path class="cls-2" d="M124.6,109c0,6.9-4.8,12-10,12s-10-5.1-10-12,4.8-12,10-12S124.6,102.1,124.6,109Z"/><circle cx="109.6" cy="109.1" r="5"/><circle class="cls-4" cx="112.1" cy="106.5" r="1"/><circle class="cls-2" cx="42.5" cy="87.9" r="10"/></svg>